<svg id="tsjlogo" data-name="tsl-Logo" xmlns="http://www.w3.org/2000/svg" xmlns:xlink="http://www.w3.org/1999/xlink" width="175.373" height="73.331" viewBox="0 0 175.373 73.331">
  <defs>
    <clipPath id="clip-path">
      <rect id="Rectángulo_7718" data-name="Rectángulo 7718" width="175.373" height="73.331" fill="none"/>
    </clipPath>
  </defs>
  <rect id="Rectángulo_7689" data-name="Rectángulo 7689" width="2.723" height="2.723" transform="translate(0 45.562)" fill="#ff4d63"/>
  <rect id="Rectángulo_7690" data-name="Rectángulo 7690" width="2.723" height="2.722" transform="translate(66.411 42.086)" fill="#ff4d63"/>
  <rect id="Rectángulo_7691" data-name="Rectángulo 7691" width="2.723" height="2.723" transform="translate(69.134 33.917)" fill="#ff4d63"/>
  <rect id="Rectángulo_7692" data-name="Rectángulo 7692" width="2.712" height="2.723" transform="translate(70.817 18.477)" fill="#54c98f"/>
  <rect id="Rectángulo_7693" data-name="Rectángulo 7693" width="2.723" height="2.723" transform="translate(43.365 33.524)" fill="#54c98f"/>
  <rect id="Rectángulo_7694" data-name="Rectángulo 7694" width="2.723" height="2.723" transform="translate(55.474 55.702)" fill="#54c98f"/>
  <rect id="Rectángulo_7695" data-name="Rectángulo 7695" width="2.723" height="2.723" transform="translate(57.799 20.019)" fill="#308fff"/>
  <path id="Trazado_23893" data-name="Trazado 23893" d="M140.377,223.5v-2.736h-2.723v5.022h2.723Z" transform="translate(-114.171 -183.104)" fill="#fff"/>
  <rect id="Rectángulo_7696" data-name="Rectángulo 7696" width="2.723" height="2.723" transform="translate(35.197 25.355)" fill="#54c98f"/>


  <g id="Grupo_10490" data-name="Grupo 10490">
    <g id="Grupo_10489" data-name="Grupo 10489" clip-path="url(#clip-path)">
      <path id="Trazado_23894" data-name="Trazado 23894" d="M20.435,200.346h5.3V196.2a1.749,1.749,0,0,1,.516-1.245l2.13-2.129a4.53,4.53,0,0,1,3.224-1.335h2.359v-2.736H31.608a7.25,7.25,0,0,0-5.159,2.136l-2.129,2.13A4.467,4.467,0,0,0,23,196.2v1.407H20.435a4.516,4.516,0,0,0-4.511,4.51H18.66a1.776,1.776,0,0,1,1.775-1.774" transform="translate(-13.208 -156.558)" fill="#fff"/>
      <path id="Trazado_23895" data-name="Trazado 23895" d="M178.139,364.322v-3.781a5.114,5.114,0,0,0-5.109-5.108h-8.7v2.9a.477.477,0,0,1-.477.477h-1.775v2.736h1.775a3.217,3.217,0,0,0,3.213-3.212v-.164h5.966a2.375,2.375,0,0,1,2.373,2.372v3.781a3.813,3.813,0,0,0,3.809,3.808h.682V365.4h-.682a1.074,1.074,0,0,1-1.073-1.073" transform="translate(-134.427 -294.799)" fill="#fff"/>
      <rect id="Rectángulo_7697" data-name="Rectángulo 7697" width="2.716" height="2.723" transform="translate(37.926 22.632)" fill="#308fff"/>
      <rect id="Rectángulo_7698" data-name="Rectángulo 7698" width="2.712" height="2.723" transform="translate(73.529 15.755)" fill="#ff4d63"/>
      <rect id="Rectángulo_7699" data-name="Rectángulo 7699" width="2.723" height="2.723" transform="translate(22.192 64.013)" fill="#54c98f"/>
      <rect id="Rectángulo_7700" data-name="Rectángulo 7700" width="2.723" height="2.723" transform="translate(23.483 32.215)" fill="#308fff"/>
      <rect id="Rectángulo_7701" data-name="Rectángulo 7701" width="2.723" height="2.723" transform="translate(2.723 48.285)" fill="#308fff"/>
      <rect id="Rectángulo_7702" data-name="Rectángulo 7702" width="2.723" height="2.723" transform="translate(63.684 39.363)" fill="#308fff"/>
      <rect id="Rectángulo_7703" data-name="Rectángulo 7703" width="2.723" height="2.723" transform="translate(66.411 31.195)" fill="#308fff"/>
      <rect id="Rectángulo_7704" data-name="Rectángulo 7704" width="2.723" height="2.719" transform="translate(40.642 30.803)" fill="#308fff"/>
      <rect id="Rectángulo_7705" data-name="Rectángulo 7705" width="2.723" height="2.723" transform="translate(45.469 67.872)" fill="#308fff"/>
      <rect id="Rectángulo_7706" data-name="Rectángulo 7706" width="2.723" height="2.723" transform="translate(24.921 61.292)" fill="#ff4d63"/>
      <rect id="Rectángulo_7707" data-name="Rectángulo 7707" width="2.723" height="2.723" transform="translate(26.205 42.682)" fill="#ff4d63"/>
      <rect id="Rectángulo_7708" data-name="Rectángulo 7708" width="2.723" height="2.723" transform="translate(66.411 36.641)" fill="#54c98f"/>
      <rect id="Rectángulo_7709" data-name="Rectángulo 7709" width="2.723" height="2.723" transform="translate(37.919 28.078)" fill="#ff4d63"/>
      <rect id="Rectángulo_7710" data-name="Rectángulo 7710" width="2.723" height="2.723" transform="translate(60.524 22.742)" fill="#ff4d63"/>
      <rect id="Rectángulo_7711" data-name="Rectángulo 7711" width="2.723" height="2.722" transform="translate(20.759 34.938)" fill="#54c98f"/>
      <rect id="Rectángulo_7712" data-name="Rectángulo 7712" width="2.723" height="2.723" transform="translate(32.366 8.167)" fill="#308fff"/>
      <rect id="Rectángulo_7713" data-name="Rectángulo 7713" width="2.723" height="2.723" transform="translate(40.531 2.722)" fill="#ff4d63"/>
      <path id="Trazado_23896" data-name="Trazado 23896" d="M189.684,0V2.723h2.723l0,0V5.446h2.723V0Z" transform="translate(-157.325 0)" fill="#fff"/>
      <path id="Trazado_23897" data-name="Trazado 23897" d="M244.693,69.358h0m1.607-4.392a1.658,1.658,0,0,1-1.656,1.656c-.379,0-.858.108-4.848,2.581l-.729.4v2.447a.818.818,0,0,1-.817.817V75.6a3.557,3.557,0,0,0,3.553-3.553v-.921c1.286-.782,2.646-1.573,3.119-1.782a4.4,4.4,0,0,0,4.114-4.383v-1.1H246.3Z" transform="translate(-197.608 -52.973)" fill="#fff"/>
      <path id="Trazado_23898" data-name="Trazado 23898" d="M224.348,34.642V31.919h-2.723v5.445h2.723Z" transform="translate(-183.818 -26.474)" fill="#fff"/>
      <path id="Trazado_23899" data-name="Trazado 23899" d="M161.111,55.877a5.041,5.041,0,0,0,4.862,3.734V56.875a2.3,2.3,0,0,1-2.3-2.295V53.212h-1.794a1.475,1.475,0,0,1-1.474-1.473V47.875h-2.736v3.864a4.217,4.217,0,0,0,3.438,4.138" transform="translate(-130.775 -39.708)" fill="#fff"/>
      <rect id="Rectángulo_7714" data-name="Rectángulo 7714" width="2.723" height="2.723" transform="translate(29.637 5.445)" fill="#54c98f"/>
      <rect id="Rectángulo_7715" data-name="Rectángulo 7715" width="2.723" height="2.723" transform="translate(35.197 19.903)" fill="#ff4d63"/>
      <path id="Trazado_23900" data-name="Trazado 23900" d="M256.285,37.369H259V34.646h-2.715V31.923h-2.723v5.446h2.723Z" transform="translate(-210.307 -26.478)" fill="#fff"/>
      <path id="Trazado_23901" data-name="Trazado 23901" d="M44.983,313.028,41.505,309.9v-1.4a3.567,3.567,0,0,0-.92-2.393l-.048-.053-5.858-5.282a1.923,1.923,0,0,1-.5-1.394v-.37H31.44v.37a4.644,4.644,0,0,0,1.291,3.317l.037.038,5.821,5.249a.833.833,0,0,1,.18.518v2.615l4.4,3.956.2.168c1.46,1.246,2.613,2.231,4.9,2.231v-2.736c-1.28,0-1.783-.429-3.126-1.576Z" transform="translate(-26.077 -248.002)" fill="#fff"/>
      <path id="Trazado_23902" data-name="Trazado 23902" d="M412.382,108.314V112.3a5.774,5.774,0,0,1-.931,3.333c-.381.532-1.467,1.838-2.16,2.66h-4.014v2.736h5.28l.41-.481c.084-.1,2.077-2.439,2.71-3.325a8.36,8.36,0,0,0,1.441-4.923v-3.988Z" transform="translate(-336.14 -89.837)" fill="#fff"/>
      <path id="Trazado_23903" data-name="Trazado 23903" d="M273.339,141.361h-3.173V144.1h3.292a2.617,2.617,0,0,0,2.612-2.492h1.819a4,4,0,0,0,4-3.994v-1.572h-.007v-2.723h-2.723v2.723h-.007v1.572a1.26,1.26,0,0,1-1.259,1.258H275.95a2.618,2.618,0,0,0-2.612,2.492" transform="translate(-224.078 -110.574)" fill="#fff"/>
      <path id="Trazado_23904" data-name="Trazado 23904" d="M169.588,170.2v8.988h2.736V170.2a2.88,2.88,0,0,1,2.878-2.877h.649v-2.736H175.2a5.62,5.62,0,0,0-5.614,5.613" transform="translate(-140.658 -136.512)" fill="#fff"/>
      <path id="Trazado_23905" data-name="Trazado 23905" d="M298.072,264.04l-3.839,2.334h-2.489a3.595,3.595,0,1,0,0,7.19h2.723v-2.736h-2.723a.859.859,0,0,1,0-1.718h3.265l4.5-2.742a6.463,6.463,0,0,1,3.4-.962h2.5v-2.736h-2.5a9.194,9.194,0,0,0-4.832,1.369" transform="translate(-238.993 -217.862)" fill="#fff"/>
      <path id="Trazado_23906" data-name="Trazado 23906" d="M375.052,97.988,377,95.45c.228-.3.414-.479,1.313-.479V92.235a3.944,3.944,0,0,0-3.483,1.548l-1.951,2.539a.473.473,0,0,1-.373.184H370.75v2.736h1.759a3.226,3.226,0,0,0,2.543-1.253" transform="translate(-307.503 -76.501)" fill="#fff"/>
      <path id="Trazado_23907" data-name="Trazado 23907" d="M295.234,342.483h-2.723v2.723H292.5V347.7l-.863,2.043a1,1,0,0,1-.921.611H288.9l-1.339,2.815a2.606,2.606,0,0,1-2.343,1.48v.007H282.5v2.723h2.72v.007a5.357,5.357,0,0,0,4.814-3.04l.6-1.255h.087a3.728,3.728,0,0,0,3.441-2.282l1.079-2.553v-3.048h-.006Z" transform="translate(-234.311 -284.059)" fill="#fff"/>
      <path id="Trazado_23908" data-name="Trazado 23908" d="M525.6,99.724h-3.4V97.937h8.78v1.787h-3.4v9.312H525.6Z" transform="translate(-433.114 -81.23)" fill="#fff"/>
      <path id="Trazado_23909" data-name="Trazado 23909" d="M573.886,120.985a1.772,1.772,0,0,0-.518-1.309,1.941,1.941,0,0,0-1.4-.478,1.829,1.829,0,0,0-1.341.486,2.169,2.169,0,0,0-.6,1.3Zm-3.857,1.411a1.909,1.909,0,0,0,.658,1.317,2.06,2.06,0,0,0,1.364.47,2.242,2.242,0,0,0,1.184-.29,3.283,3.283,0,0,0,.839-.729l1.348,1.019a3.819,3.819,0,0,1-1.474,1.16,4.341,4.341,0,0,1-1.709.345,4.521,4.521,0,0,1-1.6-.282,3.836,3.836,0,0,1-1.3-.8,3.789,3.789,0,0,1-.87-1.246,4.256,4.256,0,0,1,0-3.245,3.789,3.789,0,0,1,.87-1.247,3.838,3.838,0,0,1,1.3-.8,4.517,4.517,0,0,1,1.6-.282,3.66,3.66,0,0,1,1.435.274,3.083,3.083,0,0,1,1.113.792,3.658,3.658,0,0,1,.721,1.278,5.413,5.413,0,0,1,.259,1.748v.517Z" transform="translate(-471.227 -97.694)" fill="#fff"/>
      <path id="Trazado_23910" data-name="Trazado 23910" d="M626.42,120.231a2.993,2.993,0,0,0-.69-.548,1.485,1.485,0,0,0-.737-.2,2.146,2.146,0,0,0-1.622.69,2.11,2.11,0,0,0-.439.721,2.478,2.478,0,0,0,0,1.693,2.11,2.11,0,0,0,.439.721,2.145,2.145,0,0,0,1.622.69,1.862,1.862,0,0,0,.815-.18,1.769,1.769,0,0,0,.643-.525l1.254,1.348a2.89,2.89,0,0,1-.65.486,4.425,4.425,0,0,1-.745.329,4.608,4.608,0,0,1-.721.18,3.859,3.859,0,0,1-.6.055,4.515,4.515,0,0,1-1.6-.282,3.839,3.839,0,0,1-1.3-.8,3.8,3.8,0,0,1-.87-1.246,4.26,4.26,0,0,1,0-3.245,3.8,3.8,0,0,1,.87-1.246,3.837,3.837,0,0,1,1.3-.8,4.522,4.522,0,0,1,1.6-.282,4.105,4.105,0,0,1,1.451.274,3.311,3.311,0,0,1,1.278.87Z" transform="translate(-514.981 -97.693)" fill="#fff"/>
      <path id="Trazado_23911" data-name="Trazado 23911" d="M667.4,117.975h1.787v1.207h.031a2.639,2.639,0,0,1,.815-.98,2.413,2.413,0,0,1,1.489-.415,2.95,2.95,0,0,1,1.278.251,2.424,2.424,0,0,1,.855.658,2.494,2.494,0,0,1,.47.941,4.332,4.332,0,0,1,.141,1.113v4.75h-1.882V121.69q0-.313-.031-.7a2.509,2.509,0,0,0-.164-.721,1.351,1.351,0,0,0-.415-.564,1.191,1.191,0,0,0-.768-.227,1.8,1.8,0,0,0-.792.157,1.524,1.524,0,0,0-.533.423,1.682,1.682,0,0,0-.306.611,2.723,2.723,0,0,0-.094.721V125.5H667.4Z" transform="translate(-553.55 -97.694)" fill="#fff"/>
      <path id="Trazado_23912" data-name="Trazado 23912" d="M719.831,121.737a2.444,2.444,0,0,0,.149.846,2.122,2.122,0,0,0,.439.721,2.224,2.224,0,0,0,3.245,0,2.119,2.119,0,0,0,.439-.721,2.476,2.476,0,0,0,0-1.693,2.121,2.121,0,0,0-.439-.721,2.223,2.223,0,0,0-3.245,0,2.124,2.124,0,0,0-.439.721,2.448,2.448,0,0,0-.149.846m-1.881,0a3.978,3.978,0,0,1,.321-1.622,3.788,3.788,0,0,1,.87-1.247,3.837,3.837,0,0,1,1.3-.8,4.676,4.676,0,0,1,3.2,0,3.839,3.839,0,0,1,1.3.8,3.8,3.8,0,0,1,.87,1.247,4.256,4.256,0,0,1,0,3.245,3.738,3.738,0,0,1-2.172,2.045,4.671,4.671,0,0,1-3.2,0,3.831,3.831,0,0,1-1.3-.8,3.79,3.79,0,0,1-.87-1.246,3.98,3.98,0,0,1-.321-1.622" transform="translate(-595.474 -97.694)" fill="#fff"/>
      <rect id="Rectángulo_7716" data-name="Rectángulo 7716" width="1.882" height="11.851" transform="translate(132.447 15.955)" fill="#fff"/>
      <path id="Trazado_23913" data-name="Trazado 23913" d="M802.813,97.938h2.132l-2.211,2.257h-1.474Zm-3.026,7.336a2.443,2.443,0,0,0,.149.846,2.121,2.121,0,0,0,.439.721,2.224,2.224,0,0,0,3.245,0,2.121,2.121,0,0,0,.439-.721,2.475,2.475,0,0,0,0-1.693,2.122,2.122,0,0,0-.439-.721,2.223,2.223,0,0,0-3.245,0,2.123,2.123,0,0,0-.439.721,2.447,2.447,0,0,0-.149.846m-1.881,0a3.974,3.974,0,0,1,.321-1.622,3.787,3.787,0,0,1,.87-1.247,3.829,3.829,0,0,1,1.3-.8,4.675,4.675,0,0,1,3.2,0,3.835,3.835,0,0,1,1.3.8,3.8,3.8,0,0,1,.87,1.247,4.255,4.255,0,0,1,0,3.245,3.738,3.738,0,0,1-2.172,2.045,4.67,4.67,0,0,1-3.2,0,3.739,3.739,0,0,1-2.171-2.045,3.976,3.976,0,0,1-.321-1.622" transform="translate(-661.791 -81.231)" fill="#fff"/>
      <path id="Trazado_23914" data-name="Trazado 23914" d="M858.075,119.48a2.407,2.407,0,0,0-.91.165,2,2,0,0,0-1.152,1.16,2.472,2.472,0,0,0-.165.917,2.166,2.166,0,0,0,.165.847,2.135,2.135,0,0,0,.462.689,2.186,2.186,0,0,0,.706.47,2.226,2.226,0,0,0,.878.173,2.409,2.409,0,0,0,.933-.173,2.152,2.152,0,0,0,.706-.462,1.975,1.975,0,0,0,.447-.7,2.431,2.431,0,0,0,.157-.878,2.193,2.193,0,0,0-.6-1.6,2.172,2.172,0,0,0-1.63-.611m4.013-1.5v6.85a6.315,6.315,0,0,1-.251,1.842,3.566,3.566,0,0,1-.776,1.4,3.5,3.5,0,0,1-1.325.886,5.193,5.193,0,0,1-1.9.313,7.276,7.276,0,0,1-1.991-.266,4.455,4.455,0,0,1-1.74-.972l1.129-1.536a4.6,4.6,0,0,0,1.176.8,3.333,3.333,0,0,0,1.411.282,3.027,3.027,0,0,0,1.136-.188,1.838,1.838,0,0,0,.737-.517,1.983,1.983,0,0,0,.392-.791,4.175,4.175,0,0,0,.118-1.027V124.5h-.032a2.48,2.48,0,0,1-1.082.823,3.631,3.631,0,0,1-1.38.274,3.75,3.75,0,0,1-1.536-.306,3.672,3.672,0,0,1-1.184-.823,3.579,3.579,0,0,1-.76-1.223,4.206,4.206,0,0,1-.267-1.5,4.687,4.687,0,0,1,.251-1.552,3.581,3.581,0,0,1,.737-1.254,3.492,3.492,0,0,1,1.168-.838,3.776,3.776,0,0,1,1.56-.306,3.557,3.557,0,0,1,1.49.313,2.421,2.421,0,0,1,1.1,1h.031v-1.128Z" transform="translate(-708.288 -97.694)" fill="#fff"/>
      <path id="Trazado_23915" data-name="Trazado 23915" d="M912.959,100.977h1.882V108.5h-1.882Zm-.266-2.555a1.084,1.084,0,0,1,.337-.792,1.158,1.158,0,0,1,.854-.337,1.245,1.245,0,0,1,.87.322,1.1,1.1,0,0,1,0,1.614,1.243,1.243,0,0,1-.87.321,1.157,1.157,0,0,1-.854-.337,1.083,1.083,0,0,1-.337-.792" transform="translate(-756.996 -80.696)" fill="#fff"/>
      <path id="Trazado_23916" data-name="Trazado 23916" d="M941.28,120.231a2.989,2.989,0,0,0-.69-.548,1.483,1.483,0,0,0-.737-.2,2.146,2.146,0,0,0-1.622.69,2.115,2.115,0,0,0-.439.721,2.476,2.476,0,0,0,0,1.693,2.115,2.115,0,0,0,.439.721,2.145,2.145,0,0,0,1.622.69,1.862,1.862,0,0,0,.815-.18,1.773,1.773,0,0,0,.643-.525l1.254,1.348a2.889,2.889,0,0,1-.651.486,4.421,4.421,0,0,1-.745.329,4.6,4.6,0,0,1-.721.18,3.861,3.861,0,0,1-.6.055,4.515,4.515,0,0,1-1.6-.282,3.84,3.84,0,0,1-1.3-.8,3.791,3.791,0,0,1-.87-1.246,4.255,4.255,0,0,1,0-3.245,3.793,3.793,0,0,1,.87-1.246,3.837,3.837,0,0,1,1.3-.8,4.523,4.523,0,0,1,1.6-.282,4.105,4.105,0,0,1,1.451.274,3.314,3.314,0,0,1,1.278.87Z" transform="translate(-776.129 -97.693)" fill="#fff"/>
      <path id="Trazado_23917" data-name="Trazado 23917" d="M981.939,121.737a2.445,2.445,0,0,0,.149.846,2.119,2.119,0,0,0,.439.721,2.224,2.224,0,0,0,3.245,0,2.119,2.119,0,0,0,.439-.721,2.476,2.476,0,0,0,0-1.693,2.121,2.121,0,0,0-.439-.721,2.223,2.223,0,0,0-3.245,0,2.121,2.121,0,0,0-.439.721,2.45,2.45,0,0,0-.149.846m-1.881,0a3.978,3.978,0,0,1,.321-1.622,3.786,3.786,0,0,1,.87-1.247,3.837,3.837,0,0,1,1.3-.8,4.676,4.676,0,0,1,3.2,0,3.738,3.738,0,0,1,2.172,2.046,4.255,4.255,0,0,1,0,3.245,3.739,3.739,0,0,1-2.172,2.045,4.671,4.671,0,0,1-3.2,0,3.831,3.831,0,0,1-1.3-.8,3.788,3.788,0,0,1-.87-1.246,3.98,3.98,0,0,1-.321-1.622" transform="translate(-812.869 -97.694)" fill="#fff"/>
      <path id="Trazado_23918" data-name="Trazado 23918" d="M530.594,196.441a1.822,1.822,0,0,0-.839-.666,2.926,2.926,0,0,0-1.105-.212,2.793,2.793,0,0,0-.666.079,1.81,1.81,0,0,0-.58.251,1.312,1.312,0,0,0-.415.447,1.288,1.288,0,0,0-.157.651,1.016,1.016,0,0,0,.392.862,3.831,3.831,0,0,0,.972.518q.58.22,1.27.423a5.181,5.181,0,0,1,1.27.564,3.147,3.147,0,0,1,.972.956,2.842,2.842,0,0,1,.392,1.583,3.479,3.479,0,0,1-.329,1.56,3.175,3.175,0,0,1-.886,1.105,3.828,3.828,0,0,1-1.293.658,5.423,5.423,0,0,1-1.552.219,5.83,5.83,0,0,1-1.991-.345,3.828,3.828,0,0,1-1.646-1.16l1.489-1.442a2.494,2.494,0,0,0,.948.854,2.669,2.669,0,0,0,1.247.306,2.605,2.605,0,0,0,.69-.094,2.138,2.138,0,0,0,.627-.282,1.475,1.475,0,0,0,.454-.478,1.276,1.276,0,0,0,.173-.666,1.16,1.16,0,0,0-.392-.941,3.474,3.474,0,0,0-.972-.556q-.58-.227-1.27-.431a5.344,5.344,0,0,1-1.27-.557,3.085,3.085,0,0,1-.972-.94,2.8,2.8,0,0,1-.392-1.575,2.988,2.988,0,0,1,.353-1.489,3.221,3.221,0,0,1,.925-1.043,4.041,4.041,0,0,1,1.309-.619,5.621,5.621,0,0,1,1.5-.2,5.485,5.485,0,0,1,1.7.267,3.935,3.935,0,0,1,1.482.878Z" transform="translate(-434.943 -160.72)" fill="#fff"/>
      <path id="Trazado_23919" data-name="Trazado 23919" d="M587.421,223.9h-1.787V222.7H585.6a2.636,2.636,0,0,1-.815.98,2.413,2.413,0,0,1-1.49.415,3.035,3.035,0,0,1-1.278-.243,2.3,2.3,0,0,1-.855-.658,2.557,2.557,0,0,1-.47-.948,4.313,4.313,0,0,1-.141-1.113v-4.75h1.882v3.809c0,.209.01.442.031.7a2.487,2.487,0,0,0,.164.721,1.382,1.382,0,0,0,.408.565,1.185,1.185,0,0,0,.776.227,1.8,1.8,0,0,0,.792-.157,1.525,1.525,0,0,0,.533-.423,1.683,1.683,0,0,0,.306-.612,2.714,2.714,0,0,0,.094-.721V216.38h1.881Z" transform="translate(-481.517 -179.468)" fill="#fff"/>
      <path id="Trazado_23920" data-name="Trazado 23920" d="M639.546,219.227a2.45,2.45,0,0,0-.149-.846,2.134,2.134,0,0,0-.439-.721,2.224,2.224,0,0,0-3.246,0,2.123,2.123,0,0,0-.439.721,2.484,2.484,0,0,0,0,1.693,2.114,2.114,0,0,0,.439.721,2.225,2.225,0,0,0,3.246,0,2.125,2.125,0,0,0,.439-.721,2.447,2.447,0,0,0,.149-.846m-6.24-3.762h1.787v1.128h.031a2.419,2.419,0,0,1,1.1-1,3.555,3.555,0,0,1,1.489-.314,3.8,3.8,0,0,1,1.552.306,3.48,3.48,0,0,1,1.175.839,3.591,3.591,0,0,1,.737,1.254,4.7,4.7,0,0,1,.251,1.552,4.433,4.433,0,0,1-.267,1.552,3.855,3.855,0,0,1-.745,1.254,3.425,3.425,0,0,1-1.152.839,3.528,3.528,0,0,1-1.474.306,3.643,3.643,0,0,1-.941-.11,3.238,3.238,0,0,1-.721-.282,2.873,2.873,0,0,1-.533-.368,2.65,2.65,0,0,1-.361-.384h-.047v4.53h-1.882Z" transform="translate(-525.27 -178.553)" fill="#fff"/>
      <path id="Trazado_23921" data-name="Trazado 23921" d="M694.739,218.477a1.771,1.771,0,0,0-.518-1.309,1.94,1.94,0,0,0-1.4-.478,1.828,1.828,0,0,0-1.341.486,2.17,2.17,0,0,0-.6,1.3Zm-3.857,1.411a1.91,1.91,0,0,0,.658,1.317,2.061,2.061,0,0,0,1.364.47,2.245,2.245,0,0,0,1.184-.29,3.284,3.284,0,0,0,.839-.729l1.348,1.019a3.824,3.824,0,0,1-1.474,1.16,4.346,4.346,0,0,1-1.709.345,4.521,4.521,0,0,1-1.6-.282,3.838,3.838,0,0,1-1.3-.8,3.789,3.789,0,0,1-.87-1.246,4.255,4.255,0,0,1,0-3.244,3.8,3.8,0,0,1,.87-1.246,3.843,3.843,0,0,1,1.3-.8,4.524,4.524,0,0,1,1.6-.282,3.661,3.661,0,0,1,1.435.274,3.077,3.077,0,0,1,1.113.792,3.655,3.655,0,0,1,.721,1.278,5.413,5.413,0,0,1,.259,1.748v.517Z" transform="translate(-571.464 -178.554)" fill="#fff"/>
      <path id="Trazado_23922" data-name="Trazado 23922" d="M743.958,215.465h1.882v1.191h.031a2.364,2.364,0,0,1,.894-1.019,2.475,2.475,0,0,1,1.333-.36,1.844,1.844,0,0,1,.337.031q.165.032.337.079v1.818q-.235-.062-.463-.1a2.647,2.647,0,0,0-.447-.039,2.022,2.022,0,0,0-1.058.243,1.932,1.932,0,0,0-.611.556,1.858,1.858,0,0,0-.282.627,2.37,2.37,0,0,0-.07.471v4.028h-1.882Z" transform="translate(-617.046 -178.553)" fill="#fff"/>
      <path id="Trazado_23923" data-name="Trazado 23923" d="M778.6,198.47h1.881v7.524H778.6Zm-.267-2.555a1.084,1.084,0,0,1,.337-.792,1.159,1.159,0,0,1,.855-.337,1.245,1.245,0,0,1,.87.321,1.1,1.1,0,0,1,0,1.614,1.244,1.244,0,0,1-.87.321,1.157,1.157,0,0,1-.855-.337,1.082,1.082,0,0,1-.337-.791" transform="translate(-645.554 -161.557)" fill="#fff"/>
      <path id="Trazado_23924" data-name="Trazado 23924" d="M803.279,219.227a2.439,2.439,0,0,0,.149.846,2.115,2.115,0,0,0,.439.721,2.224,2.224,0,0,0,3.245,0,2.121,2.121,0,0,0,.439-.721,2.477,2.477,0,0,0,0-1.693,2.126,2.126,0,0,0-.439-.721,2.224,2.224,0,0,0-3.245,0,2.121,2.121,0,0,0-.439.721,2.441,2.441,0,0,0-.149.846m-1.881,0a3.978,3.978,0,0,1,.321-1.622,3.785,3.785,0,0,1,.87-1.247,3.838,3.838,0,0,1,1.3-.8,4.675,4.675,0,0,1,3.2,0,3.84,3.84,0,0,1,1.3.8,3.8,3.8,0,0,1,.87,1.247,4.255,4.255,0,0,1,0,3.245,3.738,3.738,0,0,1-2.172,2.045,4.67,4.67,0,0,1-3.2,0,3.832,3.832,0,0,1-1.3-.8,3.787,3.787,0,0,1-.87-1.246,3.979,3.979,0,0,1-.321-1.622" transform="translate(-664.687 -178.553)" fill="#fff"/>
      <path id="Trazado_23925" data-name="Trazado 23925" d="M859.664,215.465h1.882v1.191h.031a2.365,2.365,0,0,1,.894-1.019,2.475,2.475,0,0,1,1.333-.36,1.842,1.842,0,0,1,.337.031q.165.032.337.079v1.818q-.235-.062-.463-.1a2.649,2.649,0,0,0-.447-.039,2.022,2.022,0,0,0-1.058.243,1.931,1.931,0,0,0-.611.556,1.858,1.858,0,0,0-.282.627,2.375,2.375,0,0,0-.07.471v4.028h-1.882Z" transform="translate(-713.013 -178.553)" fill="#fff"/>
      <path id="Trazado_23926" data-name="Trazado 23926" d="M526.283,297.151a2.44,2.44,0,0,0,.149.847,2.117,2.117,0,0,0,.439.721,2.225,2.225,0,0,0,3.245,0,2.129,2.129,0,0,0,.439-.721,2.477,2.477,0,0,0,0-1.693,2.131,2.131,0,0,0-.439-.721,2.224,2.224,0,0,0-3.245,0,2.12,2.12,0,0,0-.439.721,2.441,2.441,0,0,0-.149.846m4.453,2.634H530.7a2.423,2.423,0,0,1-1.1,1,3.558,3.558,0,0,1-1.489.314,3.777,3.777,0,0,1-1.56-.306,3.5,3.5,0,0,1-1.168-.838,3.581,3.581,0,0,1-.736-1.254,4.688,4.688,0,0,1-.251-1.552,4.436,4.436,0,0,1,.266-1.552,3.856,3.856,0,0,1,.745-1.254,3.442,3.442,0,0,1,1.152-.839,3.528,3.528,0,0,1,1.474-.306,3.656,3.656,0,0,1,.941.11,3.277,3.277,0,0,1,.721.282,2.927,2.927,0,0,1,.533.368,2.722,2.722,0,0,1,.36.384h.047v-5.283h1.881v11.851h-1.787Z" transform="translate(-434.944 -239.751)" fill="#fff"/>
      <path id="Trazado_23927" data-name="Trazado 23927" d="M588.039,316.52a1.771,1.771,0,0,0-.518-1.309,1.94,1.94,0,0,0-1.4-.478,1.828,1.828,0,0,0-1.341.486,2.168,2.168,0,0,0-.6,1.3Zm-3.857,1.411a1.91,1.91,0,0,0,.659,1.317,2.06,2.06,0,0,0,1.364.47,2.244,2.244,0,0,0,1.184-.29,3.285,3.285,0,0,0,.839-.729l1.348,1.019a3.824,3.824,0,0,1-1.474,1.16,4.348,4.348,0,0,1-1.709.345,4.521,4.521,0,0,1-1.6-.282,3.833,3.833,0,0,1-1.3-.8,3.786,3.786,0,0,1-.87-1.246,4.255,4.255,0,0,1,0-3.245,3.788,3.788,0,0,1,.87-1.246,3.835,3.835,0,0,1,1.3-.8,4.517,4.517,0,0,1,1.6-.282,3.661,3.661,0,0,1,1.435.274,3.084,3.084,0,0,1,1.113.792,3.659,3.659,0,0,1,.721,1.278,5.421,5.421,0,0,1,.258,1.748v.517Z" transform="translate(-482.966 -259.872)" fill="#fff"/>
      <path id="Trazado_23928" data-name="Trazado 23928" d="M666.266,300.949a3.843,3.843,0,0,1-.212,1.27,3.1,3.1,0,0,1-.627,1.074,2.993,2.993,0,0,1-1.043.737,3.618,3.618,0,0,1-1.458.274,3.571,3.571,0,0,1-2.156-.611,3.017,3.017,0,0,1-1.105-1.944l1.85-.439a1.509,1.509,0,0,0,.447.878,1.227,1.227,0,0,0,.87.329,1.185,1.185,0,0,0,1.152-.572,3.372,3.372,0,0,0,.306-1.575v-7.446h1.975Z" transform="translate(-547.133 -242.953)" fill="#fff"/>
      <path id="Trazado_23929" data-name="Trazado 23929" d="M713.563,317.112h-.392q-.392,0-.878.032a4.6,4.6,0,0,0-.917.149,2.1,2.1,0,0,0-.729.345.754.754,0,0,0-.3.635.8.8,0,0,0,.118.447,1.062,1.062,0,0,0,.306.306,1.28,1.28,0,0,0,.423.181,2.066,2.066,0,0,0,.47.055,1.957,1.957,0,0,0,1.435-.462,1.705,1.705,0,0,0,.462-1.262Zm.11,2.336h-.047a2.422,2.422,0,0,1-1.035.933,3.25,3.25,0,0,1-1.38.29,3.646,3.646,0,0,1-1.011-.141,2.733,2.733,0,0,1-.878-.423,2.175,2.175,0,0,1-.619-.706,2,2,0,0,1-.235-.987,2.266,2.266,0,0,1,.22-1.043,2.136,2.136,0,0,1,.588-.721,2.987,2.987,0,0,1,.854-.463,5.861,5.861,0,0,1,1.011-.258,9.021,9.021,0,0,1,1.058-.11q.533-.024,1-.024h.47v-.2a1.223,1.223,0,0,0-.486-1.058,2.058,2.058,0,0,0-1.239-.352,2.912,2.912,0,0,0-1.113.212,2.817,2.817,0,0,0-.893.572l-.988-.987a3.647,3.647,0,0,1,1.466-.925,5.4,5.4,0,0,1,1.732-.282,4.367,4.367,0,0,1,1.349.18,2.971,2.971,0,0,1,.909.462,2.054,2.054,0,0,1,.557.65,3.035,3.035,0,0,1,.282.745,4.061,4.061,0,0,1,.1.729q.016.353.016.619v4.327h-1.693Z" transform="translate(-587.61 -259.414)" fill="#fff"/>
      <rect id="Rectángulo_7717" data-name="Rectángulo 7717" width="1.881" height="11.85" transform="translate(129.81 49.218)" fill="#fff"/>
      <path id="Trazado_23930" data-name="Trazado 23930" d="M783.633,295.963h1.881v7.524h-1.881Zm-.266-2.555a1.084,1.084,0,0,1,.337-.791,1.159,1.159,0,0,1,.855-.337,1.244,1.244,0,0,1,.87.321,1.1,1.1,0,0,1,0,1.615,1.244,1.244,0,0,1-.87.321,1.159,1.159,0,0,1-.855-.337,1.084,1.084,0,0,1-.337-.792" transform="translate(-649.732 -242.419)" fill="#fff"/>
      <path id="Trazado_23931" data-name="Trazado 23931" d="M809.376,315.044a1.723,1.723,0,0,0-1.474-.768,1.576,1.576,0,0,0-.737.188.639.639,0,0,0-.36.611.526.526,0,0,0,.3.5,3.258,3.258,0,0,0,.753.266q.454.11.98.227a3.874,3.874,0,0,1,.98.361,2.147,2.147,0,0,1,.752.666,1.986,1.986,0,0,1,.3,1.16,2.1,2.1,0,0,1-.291,1.136,2.277,2.277,0,0,1-.752.745,3.341,3.341,0,0,1-1.043.408,5.477,5.477,0,0,1-1.16.125,4.985,4.985,0,0,1-1.615-.251,3.066,3.066,0,0,1-1.317-.909l1.255-1.176a3.527,3.527,0,0,0,.776.666,1.878,1.878,0,0,0,1.011.258,2.025,2.025,0,0,0,.423-.047,1.372,1.372,0,0,0,.408-.157.961.961,0,0,0,.306-.274.645.645,0,0,0,.118-.384.638.638,0,0,0-.3-.58,2.646,2.646,0,0,0-.752-.306q-.455-.117-.98-.219a3.791,3.791,0,0,1-.98-.329,2.051,2.051,0,0,1-.752-.635,1.878,1.878,0,0,1-.3-1.128,2.2,2.2,0,0,1,.259-1.089,2.278,2.278,0,0,1,.682-.76,2.948,2.948,0,0,1,.972-.439,4.438,4.438,0,0,1,2.6.117,2.437,2.437,0,0,1,1.192.886Z" transform="translate(-667.416 -259.415)" fill="#fff"/>
      <path id="Trazado_23932" data-name="Trazado 23932" d="M852.758,315.216a3,3,0,0,0-.69-.548,1.48,1.48,0,0,0-.737-.2,2.149,2.149,0,0,0-1.623.69,2.116,2.116,0,0,0-.439.721,2.475,2.475,0,0,0,0,1.693,2.119,2.119,0,0,0,.439.721,2.148,2.148,0,0,0,1.623.69,1.865,1.865,0,0,0,.815-.18,1.774,1.774,0,0,0,.643-.525l1.254,1.348a2.889,2.889,0,0,1-.651.486,4.436,4.436,0,0,1-.744.329,4.562,4.562,0,0,1-.722.18,3.875,3.875,0,0,1-.6.055,4.516,4.516,0,0,1-1.6-.282,3.841,3.841,0,0,1-1.3-.8,3.8,3.8,0,0,1-.87-1.246,4.258,4.258,0,0,1,0-3.245,3.794,3.794,0,0,1,.87-1.246,3.836,3.836,0,0,1,1.3-.8,4.519,4.519,0,0,1,1.6-.282,4.1,4.1,0,0,1,1.451.274,3.3,3.3,0,0,1,1.277.87Z" transform="translate(-702.708 -259.415)" fill="#fff"/>
      <path id="Trazado_23933" data-name="Trazado 23933" d="M893.418,316.72a2.442,2.442,0,0,0,.149.847,2.124,2.124,0,0,0,.439.721,2.224,2.224,0,0,0,3.245,0,2.124,2.124,0,0,0,.439-.721,2.477,2.477,0,0,0,0-1.693,2.129,2.129,0,0,0-.439-.721,2.224,2.224,0,0,0-3.245,0,2.129,2.129,0,0,0-.439.721,2.442,2.442,0,0,0-.149.846m-1.881,0a3.98,3.98,0,0,1,.321-1.622,3.738,3.738,0,0,1,2.171-2.045,4.671,4.671,0,0,1,3.2,0A3.739,3.739,0,0,1,899.4,315.1a4.252,4.252,0,0,1,0,3.245,3.794,3.794,0,0,1-.87,1.246,3.838,3.838,0,0,1-1.3.8,4.676,4.676,0,0,1-3.2,0,3.839,3.839,0,0,1-1.3-.8,3.791,3.791,0,0,1-.87-1.246,3.981,3.981,0,0,1-.321-1.623" transform="translate(-739.449 -259.414)" fill="#fff"/>
    </g>
  </g>
</svg>
